# File created by Blade
# Date/Time:  Tue Jan 27 19:00:36 2015
# Frame Rate: 120.000 fps
#------------------------------------------------------
:FULLY-SPECIFIED
:DEGREES
1999
root -1.317436 31.577592 -5.067306 2.549531 -12.252488 -6.225730
Spine 2.526829 -6.679935 -0.588501
Head 25.523942 -5.358692 2.156972
LeftShoulder -17.742521 17.633308 12.314046
LeftArm 5.579824 -37.612542 -77.850620
LeftForeArm 3.895291 -0.000000 104.167736
LeftHand -14.992795 -0.000000 29.358261
LeftHandThumb1 -26.253704 0.000000 33.147579
RightShoulder -13.669861 -5.698612 -7.393966
RightArm 4.991818 -30.919809 81.695566
RightForeArm -22.935138 -0.000000 16.063318
RightHand -13.986009 0.000000 12.977108
RightHandThumb1 -24.326973 -0.000000 -32.862282
LeftUpLeg -6.070385 11.027186 -5.605825
LeftLeg 17.740948 -0.000000 -0.000000
LeftFoot -31.456607 29.491020 -19.177828
LeftToeBase 10.276339 -0.000000 -0.000000
RightUpLeg -53.782554 -37.600172 13.205059
RightLeg 86.770692 -0.000000 -0.000000
RightFoot -24.142139 -6.680865 35.689559
RightToeBase 5.153885 -0.000000 -0.000000
2000
root -1.305912 31.575079 -5.069015 2.538789 -12.433202 -6.121168
Spine 2.528400 -6.393950 -0.652628
Head 25.437447 -5.335484 2.080786
LeftShoulder -17.764219 17.510406 12.246734
LeftArm 5.307285 -37.760502 -77.665187
LeftForeArm 3.632168 0.000000 104.323959
LeftHand -14.938712 0.000000 29.365971
LeftHandThumb1 -26.253704 0.000000 33.147579
RightShoulder -13.555007 -5.638241 -7.397448
RightArm 5.144663 -31.239335 81.497774
RightForeArm -22.876766 -0.000000 15.759665
RightHand -13.953370 -0.000000 13.071467
RightHandThumb1 -24.326973 -0.000000 -32.862282
LeftUpLeg -5.999426 11.141967 -5.749301
LeftLeg 17.559589 -0.000000 -0.000000
LeftFoot -31.445416 29.493490 -19.300168
LeftToeBase 10.182656 -0.000000 -0.000000
RightUpLeg -54.941166 -38.483480 14.749706
RightLeg 86.551573 -0.000000 -0.000000
RightFoot -25.669862 -8.271310 35.238274
RightToeBase 4.565784 -0.000000 -0.000000
2001
root -1.291712 31.570859 -5.071812 2.512794 -12.710984 -6.006528
Spine 2.557254 -6.049014 -0.719667
Head 25.334218 -5.266942 1.965684
LeftShoulder -17.866193 17.577186 12.114283
LeftArm 5.301074 -37.995321 -77.653873
LeftForeArm 3.079232 -0.000000 104.421824
LeftHand -14.595089 -0.000000 28.899473
LeftHandThumb1 -26.253704 0.000000 33.147579
RightShoulder -13.419662 -5.621316 -7.428490
RightArm 5.409228 -31.489816 81.288985
RightForeArm -22.804159 -0.000000 15.410275
RightHand -14.013278 0.000000 13.243736
RightHandThumb1 -24.326973 -0.000000 -32.862282
LeftUpLeg -5.912825 11.288826 -5.913340
LeftLeg 17.351181 -0.000000 -0.000000
LeftFoot -31.406380 29.688149 -19.264006
LeftToeBase 10.198447 -0.000000 -0.000000
RightUpLeg -56.173276 -39.272077 16.397531
RightLeg 86.363433 -0.000000 -0.000000
RightFoot -27.167139 -9.557231 35.274496
RightToeBase 3.858971 -0.000000 -0.000000
2002
root -1.279322 31.564891 -5.071449 2.466920 -13.039833 -5.871567
Spine 2.584090 -5.695436 -0.816366
Head 25.272449 -5.161249 1.841339
LeftShoulder -17.907539 17.615868 12.009866
LeftArm 5.142421 -38.265891 -77.575021
LeftForeArm 2.827637 -0.000000 104.564596
LeftHand -14.425583 -0.000000 28.543163
LeftHandThumb1 -26.253704 0.000000 33.147579
RightShoulder -13.241355 -5.511086 -7.504814
RightArm 5.522944 -31.645139 81.174698
RightForeArm -22.847813 0.000000 15.122296
RightHand -13.977049 0.000000 13.439463
RightHandThumb1 -24.326973 -0.000000 -32.862282
LeftUpLeg -5.802033 11.403123 -6.095306
LeftLeg 17.135683 -0.000000 -0.000000
LeftFoot -31.382221 29.956723 -19.248355
LeftToeBase 10.194239 -0.000000 -0.000000
RightUpLeg -57.372444 -39.948256 17.991381
RightLeg 86.185079 -0.000000 -0.000000
RightFoot -28.506784 -10.511309 35.336598
RightToeBase 3.527454 -0.000000 -0.000000
2003
root -1.265042 31.554470 -5.060927 2.363924 -13.491816 -5.669057
Spine 2.631518 -5.243429 -0.989630
Head 25.224895 -5.033856 1.708459
LeftShoulder -17.902443 17.668986 11.915724
LeftArm 4.868786 -38.597892 -77.395523
LeftForeArm 2.504303 -0.000000 104.764765
LeftHand -14.467856 -0.000000 28.474794
LeftHandThumb1 -26.253704 0.000000 33.147579
RightShoulder -13.108547 -5.348783 -7.624444
RightArm 5.646894 -31.849295 81.091113
RightForeArm -22.636672 0.000000 14.738577
RightHand -13.857834 -0.000000 13.585869
RightHandThumb1 -24.326973 -0.000000 -32.862282
LeftUpLeg -5.603677 11.595019 -6.343383
LeftLeg 16.836611 -0.000000 -0.000000
LeftFoot -31.319593 30.220313 -19.178116
LeftToeBase 10.460180 -0.000000 -0.000000
RightUpLeg -58.479105 -40.492944 19.394548
RightLeg 86.139682 -0.000000 -0.000000
RightFoot -29.396661 -10.929400 35.297443
RightToeBase 2.841162 -0.000000 -0.000000
2004
root -1.246773 31.542800 -5.057331 2.261032 -13.969819 -5.444268
Spine 2.697521 -4.799213 -1.187800
Head 25.160495 -4.891019 1.586735
LeftShoulder -18.005348 17.738874 11.780778
LeftArm 4.742586 -38.762942 -77.256731
LeftForeArm 2.570392 0.000000 104.895548
LeftHand -14.560959 -0.000000 28.911036
LeftHandThumb1 -26.253704 0.000000 33.147579
RightShoulder -12.946423 -5.163466 -7.746675
RightArm 5.767707 -32.039183 81.038782
RightForeArm -22.766100 -0.000000 14.352995
RightHand -13.776014 0.000000 13.280896
RightHandThumb1 -24.326973 -0.000000 -32.862282
LeftUpLeg -5.439578 11.623003 -6.618757
LeftLeg 16.598630 -0.000000 -0.000000
LeftFoot -31.316194 30.703572 -19.113415
LeftToeBase 10.410313 -0.000000 -0.000000
RightUpLeg -59.717044 -41.024184 20.960279
RightLeg 86.096561 -0.000000 -0.000000
RightFoot -30.238590 -11.371850 35.164520
RightToeBase 2.436977 -0.000000 -0.000000
2005
root -1.231584 31.529426 -5.055052 2.155062 -14.537018 -5.217824
Spine 2.762552 -4.290440 -1.406920
Head 25.108137 -4.733611 1.472207
LeftShoulder -18.142894 17.825650 11.638587
LeftArm 4.645111 -38.964873 -77.124429
LeftForeArm 2.492464 0.000000 105.061282
LeftHand -14.672829 -0.000000 29.077793
LeftHandThumb1 -26.253704 0.000000 33.147579
RightShoulder -12.758455 -4.938658 -7.870330
RightArm 5.840867 -32.225513 81.010211
RightForeArm -22.881689 -0.000000 14.034201
RightHand -13.893793 0.000000 13.119417
RightHandThumb1 -24.326973 -0.000000 -32.862282
LeftUpLeg -5.303167 11.759588 -6.886440
LeftLeg 16.425699 -0.000000 -0.000000
LeftFoot -31.472236 30.895201 -19.438474
LeftToeBase 10.340998 -0.000000 -0.000000
RightUpLeg -60.883775 -41.412817 22.483436
RightLeg 86.058305 -0.000000 -0.000000
RightFoot -30.797759 -11.354642 35.140797
RightToeBase 1.628496 -0.000000 -0.000000
2006
root -1.210383 31.512505 -5.055329 2.014198 -15.151276 -4.974567
Spine 2.878818 -3.771028 -1.629285
Head 25.032265 -4.555269 1.336211
LeftShoulder -18.308732 17.935511 11.486010
LeftArm 4.607684 -39.227421 -77.072613
LeftForeArm 2.341703 -0.000000 105.209551
LeftHand -14.678014 -0.000000 28.941574
LeftHandThumb1 -26.253704 0.000000 33.147579
RightShoulder -12.562403 -4.666314 -8.037850
RightArm 5.908929 -32.348973 80.998672
RightForeArm -22.987808 -0.000000 13.741819
RightHand -13.870683 0.000000 12.926141
RightHandThumb1 -24.326973 -0.000000 -32.862282
LeftUpLeg -5.140022 11.928419 -7.187472
LeftLeg 16.206094 -0.000000 -0.000000
LeftFoot -31.496722 31.408513 -19.332621
LeftToeBase 10.500943 -0.000000 -0.000000
RightUpLeg -61.977972 -41.690032 23.895383
RightLeg 86.090643 -0.000000 -0.000000
RightFoot -31.020781 -11.052404 35.008119
RightToeBase 1.287265 -0.000000 -0.000000
2007
root -1.190981 31.493718 -5.052451 1.854640 -15.771452 -4.728705
Spine 3.003791 -3.268087 -1.862603
Head 24.959539 -4.365089 1.210064
LeftShoulder -18.458598 18.015633 11.349338
LeftArm 4.454195 -39.478878 -76.948278
LeftForeArm 2.196268 -0.000000 105.416028
LeftHand -14.761147 0.000000 28.937240
LeftHandThumb1 -26.253704 0.000000 33.147579
RightShoulder -12.387846 -4.436666 -8.199814
RightArm 6.081164 -32.519948 80.911477
RightForeArm -22.715232 -0.000000 13.462699
RightHand -13.899057 -0.000000 12.589525
RightHandThumb1 -24.326973 -0.000000 -32.862282
LeftUpLeg -4.967387 11.960807 -7.480453
LeftLeg 16.037007 -0.000000 -0.000000
LeftFoot -31.734393 31.657791 -19.792232
LeftToeBase 10.321638 -0.000000 -0.000000
RightUpLeg -63.055903 -41.970035 25.347717
RightLeg 86.162931 -0.000000 -0.000000
RightFoot -31.103777 -10.300016 35.252795
RightToeBase 0.233177 -0.000000 -0.000000
2008
root -1.177545 31.476028 -5.053799 1.728005 -16.415220 -4.503836
Spine 3.092983 -2.763619 -2.100259
Head 24.916514 -4.179075 1.125452
LeftShoulder -18.629887 18.094939 11.222394
LeftArm 4.336026 -39.719433 -76.826029
LeftForeArm 2.105961 -0.000000 105.598795
LeftHand -14.807068 -0.000000 28.935908
LeftHandThumb1 -26.253704 0.000000 33.147579
RightShoulder -12.218037 -4.194947 -8.318902
RightArm 6.221616 -32.623124 80.806887
RightForeArm -22.588111 0.000000 13.343624
RightHand -14.041607 -0.000000 12.693803
RightHandThumb1 -24.326973 -0.000000 -32.862282
LeftUpLeg -4.890976 12.042314 -7.737586
LeftLeg 15.984088 -0.000000 -0.000000
LeftFoot -31.857546 32.027414 -19.953082
LeftToeBase 10.283933 -0.000000 -0.000000
RightUpLeg -64.157997 -42.168667 26.877154
RightLeg 86.195890 -0.000000 -0.000000
RightFoot -31.157763 -10.109631 34.693653
RightToeBase -0.129756 -0.000000 0.000000
